# xmcd
#
# Track frame offsets:
#	150
#	16690
#	44064
#	57615
#	71522
#	89433
#	105342
#	121258
#	138358
#	157996
#	175132
#	192309
#	206164
#	234028
#	259341
#
# Disc length: 4195 seconds
#
# Revision: 1
# Processed by: cddbd v1.5.2PL0 Copyright (c) Steve Scherf et al.
# Submitted via: audiograbber 1.83.01
#
DISCID=cc10610f
DTITLE=Shakey Vick Blues Band - On The Ball
DYEAR=1900
DGENRE=Blues
TTITLE0=Elevator Woman
TTITLE1=Early In The Morning
TTITLE2=I Want To Be Loved
TTITLE3=My Babe
TTITLE4=Key To The Highway
TTITLE5=Checking On My Baby
TTITLE6=Aw Baby
TTITLE7=Walking Through The Park
TTITLE8=Baby Please Don't Go
TTITLE9=I'm Ready
TTITLE10=One More Time
TTITLE11=Baby What Do You Want Me To Do (live)
TTITLE12=One More Time (live)
TTITLE13=Caldonia (live)
TTITLE14=Got My Mojo Working (live)
EXTD=
EXTT0=
EXTT1=
EXTT2=
EXTT3=
EXTT4=
EXTT5=
EXTT6=
EXTT7=
EXTT8=
EXTT9=
EXTT10=
EXTT11=
EXTT12=
EXTT13=
EXTT14=
PLAYORDER=
